<svg width="30" height="29" viewBox="0 0 30 29" fill="none" xmlns="http://www.w3.org/2000/svg">
<g clip-path="url(#clip0_14_28)">
<path d="M15 0L14.3467 0.0283203L13.6992 0.110449L13.0576 0.246387L12.4336 0.438965L11.8301 0.679687L11.25 0.971387L10.6992 1.31406L10.1807 1.69922L9.69434 2.12402L9.25488 2.59131L8.85645 3.09258L8.50488 3.625L8.20312 4.18857L7.9541 4.77197L7.75488 5.3752L7.61426 5.99258L7.5293 6.62129L7.5 7.25283L7.52637 8.23838L7.61133 9.22109L7.74902 10.201L7.94238 11.1695L8.18848 12.1239L8.49023 13.0698L8.84766 13.9959L9.24902 14.8993L9.70605 15.7829L9.97852 16.2304L10.2949 16.6523L10.3945 16.8138L10.4473 16.995L10.4531 17.1791L10.4062 17.3632L10.3125 17.5274L10.1807 17.6634L10.0166 17.7625L9.8291 17.8163L8.54297 18.0514L7.26562 18.3374L6.00293 18.6744L4.75488 19.0624L3.52734 19.4957L3.05273 19.7081L2.60742 19.9687L2.19727 20.2802L1.8252 20.6342L1.49707 21.025L1.22168 21.4526L0.996094 21.9086L0.697266 22.6959L0.445312 23.503L0.251953 24.3243L0.111328 25.1513L0.0292969 25.9895L0 26.8307L0.0292969 27.0346L0.120117 27.2243L0.257812 27.3801L0.439453 27.4905L0.641602 27.55H0.858398L1.06055 27.4905L1.24219 27.3801L1.37988 27.2243L1.4707 27.0346L1.5 26.8307L1.52637 26.083L1.59961 25.341L1.72266 24.599L1.89551 23.874L2.11816 23.1547L2.38477 22.4552L2.56348 22.1012L2.78906 21.7755L3.05859 21.4838L3.36621 21.2289L3.70605 21.0137L4.07227 20.8494L5.24414 20.4303L6.43066 20.0621L7.63184 19.7421L8.85059 19.4702L10.0752 19.2465L10.4209 19.1644L10.7549 19.0284L11.0566 18.8443L11.3262 18.6121L11.5518 18.3459L11.7334 18.0429L11.8652 17.72L11.9355 17.3802L11.9561 17.0347L11.915 16.6892L11.8184 16.355L11.6689 16.0406L11.4727 15.7546L11.2354 15.4346L11.0303 15.1032L10.6113 14.2904L10.2393 13.455L9.91406 12.6054L9.63574 11.7359L9.41016 10.8552L9.23145 9.96309L9.10254 9.06533L9.02344 8.16191L9 7.25283L9.0293 6.68359L9.11719 6.12002L9.25781 5.56777L9.45703 5.03252L9.70898 4.51709L10.0107 4.02998L10.3623 3.57119L10.7549 3.14922L11.1943 2.76689L11.666 2.42705L12.1729 2.13818L12.7061 1.8918L13.2598 1.70205L13.8281 1.56328L14.4111 1.47832L15 1.45L15.5889 1.47832L16.1719 1.56328L16.7402 1.70205L17.2939 1.8918L17.8301 2.13818L18.334 2.42705L18.8057 2.76689L19.2451 3.14922L19.6377 3.57119L19.9893 4.02998L20.291 4.51709L20.543 5.03252L20.7422 5.56777L20.8857 6.12002L20.9736 6.68359L21 7.25283L20.9766 8.16191L20.8975 9.06533L20.7686 9.96309L20.5928 10.8552L20.3643 11.7359L20.0859 12.6054L19.7607 13.455L19.3887 14.2904L18.9697 15.1032L18.7646 15.4346L18.5273 15.7546L18.3311 16.0406L18.1816 16.355L18.085 16.6892L18.0439 17.0347L18.0645 17.3802L18.1377 17.72L18.2666 18.0429L18.4482 18.3459L18.6768 18.6121L18.9434 18.8443L19.2451 19.0284L19.5791 19.1644L19.9248 19.2465L21.1494 19.4702L22.3682 19.7421L23.5693 20.0621L24.7588 20.4303L25.9277 20.8494L26.2939 21.0137L26.6338 21.2289L26.9414 21.4838L27.2109 21.7755L27.4365 22.1012L27.6152 22.4552L27.8818 23.1547L28.1045 23.874L28.2773 24.599L28.4004 25.341L28.4736 26.083L28.5 26.8307L28.5293 27.0346L28.6201 27.2243L28.7578 27.3801L28.9395 27.4905L29.1416 27.55H29.3584L29.5635 27.4905L29.7422 27.3801L29.8799 27.2243L29.9707 27.0346L30 26.8307L29.9707 25.9895L29.8887 25.1513L29.748 24.3215L29.5547 23.503L29.3027 22.6959L29.0039 21.9086L28.7783 21.4526L28.5029 21.025L28.1748 20.6342L27.8027 20.2802L27.3955 19.9687L26.9502 19.7081L26.4727 19.4957L25.2451 19.0624L23.9971 18.6744L22.7344 18.3374L21.46 18.0514L20.1709 17.8163L19.9834 17.7625L19.8193 17.6634L19.6875 17.5274L19.5938 17.3632L19.5498 17.1791L19.5527 16.995L19.6055 16.8138L19.7051 16.6523L20.0215 16.2304L20.2939 15.7829L20.751 14.8993L21.1553 13.9959L21.5098 13.0698L21.8115 12.1239L22.0576 11.1695L22.251 10.201L22.3887 9.22109L22.4736 8.23838L22.5 7.25283L22.4736 6.62129L22.3857 5.99258L22.2451 5.3752L22.0459 4.77197L21.7969 4.18857L21.4951 3.625L21.1465 3.09258L20.7451 2.59131L20.3057 2.12402L19.8193 1.69922L19.3037 1.31406L18.75 0.971387L18.1699 0.679687L17.5664 0.438965L16.9424 0.246387L16.3008 0.110449L15.6533 0.0283203L15 0Z" fill="#222222"/>
</g>
<defs>
<clipPath id="clip0_14_28">
<rect width="30" height="29" fill="white"/>
</clipPath>
</defs>
</svg>
