<svg width="26" height="29" viewBox="0 0 26 29" fill="none" xmlns="http://www.w3.org/2000/svg">
<path fill-rule="evenodd" clip-rule="evenodd" d="M0.751066 21.7386C0.687394 25.2545 3.48471 28.1572 7.00067 28.2234H18.0214C21.5375 28.1572 24.3347 25.2545 24.271 21.7386L23.5369 13.8628C23.3505 10.8935 21.2729 8.38234 18.391 7.64334C17.7906 7.46865 17.1685 7.37929 16.543 7.3779H8.47902C7.85367 7.37929 7.23158 7.46865 6.63107 7.64334C3.75109 8.38257 1.67444 10.8919 1.48691 13.8594L0.751066 21.7386Z" stroke="black" stroke-width="1.5" stroke-linecap="round" stroke-linejoin="round"/>
<path d="M18.3911 9.80288V6.4076C18.3278 3.22263 15.6962 0.691084 12.5111 0.751043C9.32597 0.691084 6.69451 3.22263 6.6311 6.4076V9.8012" stroke="black" stroke-width="1.5" stroke-linecap="round" stroke-linejoin="round"/>
</svg>
