<svg width="73" height="73" viewBox="0 0 73 73" fill="none" xmlns="http://www.w3.org/2000/svg">
<path d="M41.5711 23.5713H31.0961C26.5461 23.5713 23.8336 26.199 23.8336 30.6068V40.7424C23.8336 45.1623 26.5461 47.79 31.0961 47.79H41.5586C46.1086 47.79 48.8211 45.1623 48.8211 40.7545V30.6068C48.8336 26.199 46.1211 23.5713 41.5711 23.5713ZM36.3336 40.3791C33.6586 40.3791 31.4836 38.2721 31.4836 35.6807C31.4836 33.0893 33.6586 30.9822 36.3336 30.9822C39.0086 30.9822 41.1836 33.0893 41.1836 35.6807C41.1836 38.2721 39.0086 40.3791 36.3336 40.3791ZM43.7336 29.4807C43.6711 29.626 43.5836 29.7592 43.4711 29.8803C43.3461 29.9893 43.2086 30.074 43.0586 30.1346C42.9086 30.1951 42.7461 30.2314 42.5836 30.2314C42.2461 30.2314 41.9336 30.1104 41.6961 29.8803C41.5836 29.7592 41.4961 29.626 41.4336 29.4807C41.3711 29.3354 41.3336 29.1779 41.3336 29.0205C41.3336 28.8631 41.3711 28.7057 41.4336 28.5604C41.4961 28.4029 41.5836 28.2818 41.6961 28.1607C41.9836 27.8822 42.4211 27.749 42.8211 27.8338C42.9086 27.8459 42.9836 27.8701 43.0586 27.9064C43.1336 27.9307 43.2086 27.967 43.2836 28.0154C43.3461 28.0518 43.4086 28.1123 43.4711 28.1607C43.5836 28.2818 43.6711 28.4029 43.7336 28.5604C43.7961 28.7057 43.8336 28.8631 43.8336 29.0205C43.8336 29.1779 43.7961 29.3354 43.7336 29.4807Z" fill="#C89F3E"/>
<circle cx="36.3274" cy="36.3274" r="35.8274" stroke="#C89E3E"/>
</svg>
