<svg width="73" height="73" viewBox="0 0 73 73" fill="none" xmlns="http://www.w3.org/2000/svg">
<path d="M46.1274 23.823H26.6586C26.4077 23.8109 26.1569 23.8498 25.9206 23.9375C25.6843 24.0253 25.4671 24.1601 25.2816 24.3342C25.096 24.5084 24.9456 24.7185 24.8391 24.9525C24.7326 25.1865 24.6719 25.4398 24.6607 25.698V45.768C24.6754 46.3081 24.8906 46.8222 25.2622 47.2042C25.6337 47.5864 26.1334 47.8078 26.6586 47.823H46.1274C46.6379 47.7996 47.1193 47.5713 47.4683 47.1871C47.8173 46.803 48.006 46.2936 47.994 45.768V25.698C47.9983 25.4467 47.9525 25.1972 47.8596 24.9648C47.7667 24.7324 47.6286 24.522 47.4537 24.3464C47.279 24.1709 47.0712 24.0339 46.8431 23.9439C46.615 23.8539 46.3715 23.8127 46.1274 23.823ZM31.9524 43.833H28.5545V33.138H31.9524V43.833ZM30.3336 31.518C30.0965 31.5265 29.8602 31.4844 29.6397 31.3945C29.4191 31.3046 29.219 31.1688 29.0519 30.9955C28.8849 30.8222 28.7544 30.6153 28.6688 30.3877C28.5832 30.1601 28.5443 29.9168 28.5545 29.673C28.544 29.4265 28.5837 29.1805 28.671 28.9508C28.7584 28.7211 28.8915 28.5127 29.0618 28.3389C29.232 28.1652 29.4357 28.03 29.6598 27.942C29.8838 27.854 30.1233 27.8152 30.3628 27.828C30.5999 27.8195 30.8362 27.8615 31.0567 27.9514C31.2773 28.0413 31.4774 28.1772 31.6445 28.3504C31.8116 28.5237 31.942 28.7306 32.0276 28.9582C32.1132 29.1858 32.1521 29.4291 32.142 29.673C32.1524 29.9194 32.1127 30.1654 32.0254 30.3951C31.938 30.6248 31.8049 30.8332 31.6346 31.007C31.4644 31.1807 31.2607 31.3159 31.0366 31.4039C30.8126 31.4919 30.5731 31.5307 30.3336 31.518ZM44.1149 43.833H40.7024V37.983C40.7024 36.588 40.2211 35.628 39.0107 35.628C38.6347 35.6313 38.2689 35.7541 37.9635 35.9797C37.658 36.2053 37.4278 36.5226 37.3045 36.888C37.2097 37.1619 37.17 37.4527 37.1878 37.743V43.833H33.8336V33.138H37.1878V34.638C37.486 34.0744 37.9298 33.6067 38.4702 33.2863C39.0107 32.9661 39.6267 32.8057 40.2503 32.823C42.4524 32.823 44.1149 34.323 44.1149 37.518V43.833Z" fill="#C89F3E"/>
<circle cx="36.3274" cy="36.3274" r="35.8274" stroke="#C89E3E"/>
</svg>
