<svg width="73" height="73" viewBox="0 0 73 73" fill="none" xmlns="http://www.w3.org/2000/svg">
<path d="M48.6607 35.4004C48.6319 33.0501 47.932 30.7571 46.6435 28.7912C45.3549 26.8254 43.5316 25.2686 41.3881 24.3044C39.2444 23.3401 36.8699 23.0085 34.5441 23.3485C32.2184 23.6885 30.0383 24.686 28.2605 26.2236C26.4826 27.7612 25.1812 29.7748 24.5094 32.0272C23.8377 34.2796 23.8235 36.6771 24.4687 38.9373C25.1138 41.1975 26.3914 43.2262 28.151 44.7847C29.9105 46.3432 32.0787 47.3664 34.4003 47.7337V38.9925H31.317V35.4004H34.4003V32.6717C34.3289 32.0372 34.3977 31.3948 34.6018 30.7898C34.8059 30.1848 35.1403 29.6319 35.5814 29.1703C36.0224 28.7086 36.5594 28.3494 37.1545 28.118C37.7496 27.8865 38.3883 27.7885 39.0253 27.8309C39.95 27.8435 40.8725 27.926 41.7849 28.0775V31.1609H40.2432C39.9774 31.1273 39.7073 31.154 39.4533 31.2388C39.1991 31.3237 38.9672 31.4645 38.7748 31.651C38.5824 31.8375 38.4344 32.0648 38.3417 32.3162C38.2489 32.5676 38.2139 32.8366 38.2391 33.1033V35.4312H41.6616L41.1066 39.0233H38.2545V47.6567C41.1681 47.1959 43.82 45.706 45.7292 43.4573C47.6384 41.2086 48.6785 38.3502 48.6607 35.4004Z" fill="#C89F3E"/>
<circle cx="36.3274" cy="36.3274" r="35.8274" stroke="#C89E3E"/>
</svg>
